<svg width="24" height="24" viewBox="0 0 24 24" fill="none" xmlns="http://www.w3.org/2000/svg">
<g clip-path="url(#clip0_936_319)">
<path d="M1.99723 24C1.46463 24 0.998613 23.8 0.599168 23.4C0.199723 23 0 22.5333 0 22V2C0 1.46667 0.199723 1 0.599168 0.6C0.998613 0.2 1.46463 0 1.99723 0H15.6117V5.7H18.3079V8.4H23.9667V22C23.9667 22.5333 23.767 23 23.3675 23.4C22.9681 23.8 22.5021 24 21.9695 24H1.99723ZM3.99445 18.6H19.9723L15.1789 12.2L10.9515 17.7667L7.82247 13.6333L3.99445 18.6ZM19.3065 7.4V4.7H16.6103V2.7H19.3065V0H21.3037V2.7H24V4.7H21.3037V7.4H19.3065Z" fill="white"/>
</g>
<defs>
<clipPath id="clip0_936_319">
<rect width="24" height="24" fill="white"/>
</clipPath>
</defs>
</svg>
