<svg width="24" height="24" viewBox="0 0 24 24" fill="none" xmlns="http://www.w3.org/2000/svg">
<g clip-path="url(#clip0_936_324)">
<path d="M5.33333 13.3333H8V10.6667H5.33333V13.3333ZM10.6667 18.6667H13.3333V16H10.6667V18.6667ZM10.6667 13.3333H13.3333V10.6667H10.6667V13.3333ZM10.6667 8H13.3333V5.33333H10.6667V8ZM16 13.3333H18.6667V10.6667H16V13.3333Z" fill="white"/>
<path d="M13.3333 10.6667V13.3333H16V10.6667H13.3333Z" fill="white"/>
<path d="M10.6667 10.6667H13.3333V8H10.6667V10.6667Z" fill="white"/>
<path d="M10.6667 16H13.3333V13.3333H10.6667V16Z" fill="white"/>
<path d="M8 10.6667V13.3333H10.6667V10.6667H8Z" fill="white"/>
<path d="M18.6667 24V21.3333H21.3333V18.6667H24V24H18.6667Z" fill="white"/>
<path d="M18.6667 0H24V5.33333H21.3333V2.66667H18.6667V0Z" fill="white"/>
<path d="M2.66667 5.33333H0V0H5.33333V2.66667H2.66667V5.33333Z" fill="white"/>
<path d="M0 24V18.6667H2.66667V21.3333H5.33333V24H0Z" fill="white"/>
</g>
<defs>
<clipPath id="clip0_936_324">
<rect width="24" height="24" fill="white"/>
</clipPath>
</defs>
</svg>
