<svg width="216" height="215" viewBox="0 0 216 215" fill="none" xmlns="http://www.w3.org/2000/svg">
<path d="M133.407 7.17418L170.407 43.1742L36.907 36.6742L100.407 4.17418C117.207 -4.62582 129.407 2.50751 133.407 7.17418Z" fill="white"/>
<path d="M215.907 176.674H177.407L36.907 36.6741L149.407 36.1741C160.907 36.1741 167.74 40.5074 170.407 43.1741L215.907 89.1741V176.674Z" fill="#9DA7B3"/>
<path d="M177.407 214.674V176.674L36.907 36.6742L1.90698 109.674C-2.49302 119.274 1.74032 128.008 4.40698 131.174L87.407 214.674H177.407Z" fill="#9DA7B3"/>
<path d="M38.407 158.174L36.907 36.6742L177.407 176.674L56.407 176.174C44.907 175.174 38.407 167.174 38.407 158.174Z" fill="white"/>
</svg>
