<svg width="24" height="24" viewBox="0 0 24 24" fill="none" xmlns="http://www.w3.org/2000/svg">
<g clip-path="url(#clip0_936_313)">
<path fill-rule="evenodd" clip-rule="evenodd" d="M20.6671 2V3.33333H22.0004V2H20.6671ZM19.6671 0C19.1148 0 18.6671 0.447716 18.6671 1V1.9999H13.0008V1.33323C13.0008 0.780948 12.5531 0.333233 12.0008 0.333233C11.4485 0.333233 11.0008 0.780948 11.0008 1.33323V1.9999H5.33333V1C5.33333 0.447715 4.88562 0 4.33333 0H1C0.447715 0 0 0.447716 0 1V4.33333C0 4.88562 0.447716 5.33333 1 5.33333H2.0008V10.9999H1.33413C0.78185 10.9999 0.334135 11.4476 0.334135 11.9999C0.334135 12.5522 0.78185 12.9999 1.33413 12.9999H2.0008V18.6666H1C0.447715 18.6666 0 19.1143 0 19.6666V23C0 23.5522 0.447716 24 1 24H4.33333C4.88562 24 5.33333 23.5522 5.33333 22.9999V21.9999H11.0008V22.6666C11.0008 23.2189 11.4485 23.6666 12.0008 23.6666C12.5531 23.6666 13.0008 23.2189 13.0008 22.6666V21.9999H18.6671V23C18.6671 23.5522 19.1148 24 19.6671 24H23.0004C23.5527 24 24.0004 23.5522 24.0004 22.9999V19.6666C24.0004 19.1143 23.5527 18.6666 23.0004 18.6666H22.0008V12.9999H22.6675C23.2198 12.9999 23.6675 12.5522 23.6675 11.9999C23.6675 11.4476 23.2198 10.9999 22.6675 10.9999H22.0008V5.33333H23.0004C23.5527 5.33333 24.0004 4.88562 24.0004 4.33333V1C24.0004 0.447715 23.5527 0 23.0004 0H19.6671ZM4.0008 5.33333V10.9999H4.66747C5.21975 10.9999 5.66747 11.4476 5.66747 11.9999C5.66747 12.5522 5.21975 12.9999 4.66747 12.9999H4.0008V18.6666H4.33333C4.88562 18.6666 5.33333 19.1143 5.33333 19.6666V19.9999H11.0008V19.3332C11.0008 18.7809 11.4485 18.3332 12.0008 18.3332C12.5531 18.3332 13.0008 18.7809 13.0008 19.3332V19.9999H18.6671V19.6666C18.6671 19.1143 19.1148 18.6666 19.6671 18.6666H20.0008V12.9999H19.3341C18.7819 12.9999 18.3341 12.5522 18.3341 11.9999C18.3341 11.4476 18.7819 10.9999 19.3341 10.9999H20.0008V5.33333H19.6671C19.1148 5.33333 18.6671 4.88562 18.6671 4.33333V3.9999H13.0008V4.66657C13.0008 5.21885 12.5531 5.66657 12.0008 5.66657C11.4485 5.66657 11.0008 5.21885 11.0008 4.66657V3.9999H5.33333V4.33333C5.33333 4.88562 4.88562 5.33333 4.33333 5.33333H4.0008ZM20.6671 22V20.6666H22.0004V22H20.6671ZM2 20.6666V22H3.33333V20.6666H2ZM2 3.33333V2H3.33333V3.33333H2Z" fill="white"/>
</g>
<defs>
<clipPath id="clip0_936_313">
<rect width="24" height="24" fill="white"/>
</clipPath>
</defs>
</svg>
