<svg width="24" height="24" viewBox="0 0 24 24" fill="none" xmlns="http://www.w3.org/2000/svg">
<g clip-path="url(#clip0_936_349)">
<path d="M14.8299 0.797474L18.9428 4.7992L4.10303 4.07667L11.1616 0.463997C13.0291 -0.514202 14.3852 0.278732 14.8299 0.797474Z" fill="white"/>
<path d="M24.0005 19.6389H19.7209L4.10303 4.07661L16.6084 4.02103C17.8867 4.02103 18.6463 4.50272 18.9428 4.79914L24.0005 9.91246V19.6389Z" fill="#9DA7B3"/>
<path d="M19.7204 23.863V19.6389L4.10254 4.07669L0.211978 12.1913C-0.277121 13.2584 0.193452 14.2292 0.489876 14.5812L9.71607 23.863H19.7204Z" fill="#9DA7B3"/>
<path d="M4.26977 17.5825L4.10303 4.07669L19.7209 19.6389L6.27063 19.5834C4.9923 19.4722 4.26977 18.5829 4.26977 17.5825Z" fill="white"/>
</g>
<defs>
<clipPath id="clip0_936_349">
<rect width="24" height="24" fill="white"/>
</clipPath>
</defs>
</svg>
