<svg width="24" height="24" viewBox="0 0 24 24" fill="none" xmlns="http://www.w3.org/2000/svg">
<g clip-path="url(#clip0_936_314)">
<path d="M3.6 24C2.6 24 1.75 23.65 1.05 22.95C0.35 22.25 0 21.4 0 20.4V3.6C0 2.6 0.35 1.75 1.05 1.05C1.75 0.35 2.6 0 3.6 0H20.4C21.4 0 22.25 0.35 22.95 1.05C23.65 1.75 24 2.6 24 3.6V20.4C24 21.4 23.65 22.25 22.95 22.95C22.25 23.65 21.4 24 20.4 24H3.6ZM3.6 22.2H20.4C20.92 22.2 21.35 22.025 21.69 21.675C22.03 21.325 22.2 20.9 22.2 20.4V3.6C22.2 3.08 22.03 2.65 21.69 2.31C21.35 1.97 20.92 1.8 20.4 1.8H3.6C3.1 1.8 2.675 1.97 2.325 2.31C1.975 2.65 1.8 3.08 1.8 3.6V20.4C1.8 20.9 1.975 21.325 2.325 21.675C2.675 22.025 3.1 22.2 3.6 22.2ZM5.52 18.9L9.6 14.82L11.79 16.98L14.4 13.68L18.57 18.9H5.52ZM7.2 9.3C6.62 9.3 6.125 9.095 5.715 8.685C5.305 8.275 5.1 7.78 5.1 7.2C5.1 6.62 5.305 6.125 5.715 5.715C6.125 5.305 6.62 5.1 7.2 5.1C7.78 5.1 8.275 5.305 8.685 5.715C9.095 6.125 9.3 6.62 9.3 7.2C9.3 7.78 9.095 8.275 8.685 8.685C8.275 9.095 7.78 9.3 7.2 9.3Z" fill="white"/>
</g>
<defs>
<clipPath id="clip0_936_314">
<rect width="24" height="24" fill="white"/>
</clipPath>
</defs>
</svg>
