<svg width="24" height="24" viewBox="0 0 24 24" fill="none" xmlns="http://www.w3.org/2000/svg">
<g clip-path="url(#clip0_936_322)">
<path d="M12 17.4545C10.4909 17.4545 9.20455 16.9227 8.14091 15.8591C7.07727 14.7955 6.54545 13.5091 6.54545 12C6.54545 10.4909 7.07727 9.20455 8.14091 8.14091C9.20455 7.07727 10.4909 6.54545 12 6.54545C13.5091 6.54545 14.7955 7.07727 15.8591 8.14091C16.9227 9.20455 17.4545 10.4909 17.4545 12C17.4545 13.5091 16.9227 14.7955 15.8591 15.8591C14.7955 16.9227 13.5091 17.4545 12 17.4545ZM0.818182 12.8182C0.581818 12.8182 0.386364 12.7409 0.231818 12.5864C0.0772727 12.4318 0 12.2364 0 12C0 11.7636 0.0772727 11.5682 0.231818 11.4136C0.386364 11.2591 0.581818 11.1818 0.818182 11.1818H3.54545C3.78182 11.1818 3.97727 11.2591 4.13182 11.4136C4.28636 11.5682 4.36364 11.7636 4.36364 12C4.36364 12.2364 4.28636 12.4318 4.13182 12.5864C3.97727 12.7409 3.78182 12.8182 3.54545 12.8182H0.818182ZM20.4545 12.8182C20.2182 12.8182 20.0227 12.7409 19.8682 12.5864C19.7136 12.4318 19.6364 12.2364 19.6364 12C19.6364 11.7636 19.7136 11.5682 19.8682 11.4136C20.0227 11.2591 20.2182 11.1818 20.4545 11.1818H23.1818C23.4182 11.1818 23.6136 11.2591 23.7682 11.4136C23.9227 11.5682 24 11.7636 24 12C24 12.2364 23.9227 12.4318 23.7682 12.5864C23.6136 12.7409 23.4182 12.8182 23.1818 12.8182H20.4545ZM12 4.36364C11.7636 4.36364 11.5682 4.28636 11.4136 4.13182C11.2591 3.97727 11.1818 3.78182 11.1818 3.54545V0.818182C11.1818 0.581818 11.2591 0.386364 11.4136 0.231818C11.5682 0.0772727 11.7636 0 12 0C12.2364 0 12.4318 0.0772727 12.5864 0.231818C12.7409 0.386364 12.8182 0.581818 12.8182 0.818182V3.54545C12.8182 3.78182 12.7409 3.97727 12.5864 4.13182C12.4318 4.28636 12.2364 4.36364 12 4.36364ZM12 24C11.7636 24 11.5682 23.9227 11.4136 23.7682C11.2591 23.6136 11.1818 23.4182 11.1818 23.1818V20.4545C11.1818 20.2182 11.2591 20.0227 11.4136 19.8682C11.5682 19.7136 11.7636 19.6364 12 19.6364C12.2364 19.6364 12.4318 19.7136 12.5864 19.8682C12.7409 20.0227 12.8182 20.2182 12.8182 20.4545V23.1818C12.8182 23.4182 12.7409 23.6136 12.5864 23.7682C12.4318 23.9227 12.2364 24 12 24ZM5.45455 6.6L3.9 5.07273C3.73636 4.90909 3.65909 4.71364 3.66818 4.48636C3.67727 4.25909 3.75455 4.06364 3.9 3.9C4.06364 3.73636 4.25909 3.65455 4.48636 3.65455C4.71364 3.65455 4.90909 3.73636 5.07273 3.9L6.6 5.45455C6.74545 5.61818 6.81818 5.80909 6.81818 6.02727C6.81818 6.24545 6.74545 6.42727 6.6 6.57273C6.45455 6.73636 6.26818 6.81818 6.04091 6.81818C5.81364 6.81818 5.61818 6.74545 5.45455 6.6ZM18.9273 20.1L17.4 18.5455C17.2545 18.3818 17.1818 18.1864 17.1818 17.9591C17.1818 17.7318 17.2636 17.5455 17.4273 17.4C17.5727 17.2364 17.7545 17.1545 17.9727 17.1545C18.1909 17.1545 18.3818 17.2364 18.5455 17.4L20.1 18.9273C20.2636 19.0909 20.3409 19.2864 20.3318 19.5136C20.3227 19.7409 20.2455 19.9364 20.1 20.1C19.9364 20.2636 19.7409 20.3455 19.5136 20.3455C19.2864 20.3455 19.0909 20.2636 18.9273 20.1V20.1ZM17.4 6.6C17.2364 6.43636 17.1545 6.24545 17.1545 6.02727C17.1545 5.80909 17.2364 5.61818 17.4 5.45455L18.9273 3.9C19.0909 3.73636 19.2864 3.65909 19.5136 3.66818C19.7409 3.67727 19.9364 3.75455 20.1 3.9C20.2636 4.06364 20.3455 4.25909 20.3455 4.48636C20.3455 4.71364 20.2636 4.90909 20.1 5.07273L18.5455 6.6C18.4 6.74545 18.2136 6.81818 17.9864 6.81818C17.7591 6.81818 17.5636 6.74545 17.4 6.6ZM3.9 20.1C3.73636 19.9364 3.65455 19.7409 3.65455 19.5136C3.65455 19.2864 3.73636 19.0909 3.9 18.9273L5.45455 17.4C5.61818 17.2364 5.80909 17.1545 6.02727 17.1545C6.24545 17.1545 6.43636 17.2364 6.6 17.4C6.76364 17.5636 6.84545 17.7545 6.84545 17.9727C6.84545 18.1909 6.76364 18.3818 6.6 18.5455L5.07273 20.1C4.90909 20.2636 4.71364 20.3409 4.48636 20.3318C4.25909 20.3227 4.06364 20.2455 3.9 20.1V20.1Z" fill="white"/>
</g>
<defs>
<clipPath id="clip0_936_322">
<rect width="24" height="24" fill="white"/>
</clipPath>
</defs>
</svg>
