<svg width="24" height="24" viewBox="0 0 24 24" fill="none" xmlns="http://www.w3.org/2000/svg">
<g clip-path="url(#clip0_936_317)">
<path d="M24 5.23333V22C24 22.5333 23.8 23 23.4 23.4C23 23.8 22.5333 24 22 24H2C1.46667 24 1 23.8 0.6 23.4C0.2 23 0 22.5333 0 22V2C0 1.46667 0.2 1 0.6 0.6C1 0.2 1.46667 0 2 0H18.7667L24 5.23333ZM12 19.8333C12.9556 19.8333 13.7722 19.4944 14.45 18.8167C15.1278 18.1389 15.4667 17.3222 15.4667 16.3667C15.4667 15.4111 15.1278 14.5944 14.45 13.9167C13.7722 13.2389 12.9556 12.9 12 12.9C11.0444 12.9 10.2278 13.2389 9.55 13.9167C8.87222 14.5944 8.53333 15.4111 8.53333 16.3667C8.53333 17.3222 8.87222 18.1389 9.55 18.8167C10.2278 19.4944 11.0444 19.8333 12 19.8333ZM3.76667 8.53333H15.7V3.76667H3.76667V8.53333Z" fill="white"/>
</g>
<defs>
<clipPath id="clip0_936_317">
<rect width="24" height="24" fill="white"/>
</clipPath>
</defs>
</svg>
