<svg width="24" height="24" viewBox="0 0 24 24" fill="none" xmlns="http://www.w3.org/2000/svg">
<g clip-path="url(#clip0_936_316)">
<path d="M22.9999 1H23.9999C23.9999 0.447715 23.5522 0 22.9999 0V1ZM21.9999 4.14303C21.9999 4.69532 22.4476 5.14303 22.9999 5.14303C23.5522 5.14303 23.9999 4.69532 23.9999 4.14303H21.9999ZM7.6059 1V0C7.05362 0 6.6059 0.447715 6.6059 1L7.6059 1ZM6.6059 4.14303C6.6059 4.69532 7.05362 5.14303 7.6059 5.14303C8.15819 5.14303 8.6059 4.69532 8.6059 4.14303H6.6059ZM12.3232 15.5833C11.7709 15.5833 11.3232 16.031 11.3232 16.5833C11.3232 17.1356 11.7709 17.5833 12.3232 17.5833V15.5833ZM17.8628 17.5833C18.4151 17.5833 18.8628 17.1356 18.8628 16.5833C18.8628 16.031 18.4151 15.5833 17.8628 15.5833V17.5833ZM11.5559 12.0602H12.5559C12.5559 11.5124 12.1151 11.0665 11.5673 11.0603L11.5559 12.0602ZM10.5559 14.3167C10.5559 14.869 11.0036 15.3167 11.5559 15.3167C12.1082 15.3167 12.5559 14.869 12.5559 14.3167H10.5559ZM1 12V11C0.447715 11 0 11.4477 0 12H1ZM0 14.2565C0 14.8088 0.447715 15.2565 1 15.2565C1.55228 15.2565 2 14.8088 2 14.2565H0ZM6.27747 12L6.28887 11H6.27747V12ZM4.28878 22C3.73649 22 3.28878 22.4477 3.28878 23C3.28878 23.5523 3.73649 24 4.28878 24V22ZM8.26592 24C8.81821 24 9.26592 23.5523 9.26592 23C9.26592 22.4477 8.81821 22 8.26592 22V24ZM21.9999 1V4.14303H23.9999V1H21.9999ZM6.6059 1V4.14303H8.6059V1H6.6059ZM7.6059 2H15.093V0H7.6059V2ZM15.093 2H22.9999V0H15.093V2ZM14.093 1V16.5833H16.093V1H14.093ZM15.093 15.5833H12.3232V17.5833H15.093V15.5833ZM15.093 17.5833H17.8628V15.5833H15.093V17.5833ZM10.5559 12.0602V14.3167H12.5559V12.0602H10.5559ZM0 12V14.2565H2V12H0ZM1 13H6.27747V11H1V13ZM6.26607 12.9999L11.5445 13.0601L11.5673 11.0603L6.28887 11.0001L6.26607 12.9999ZM5.27747 12L5.27735 23L7.27735 23L7.27747 12L5.27747 12ZM6.27735 22H4.28878V24H6.27735V22ZM6.27735 24H8.26592V22H6.27735V24Z" fill="white"/>
</g>
<defs>
<clipPath id="clip0_936_316">
<rect width="24" height="24" fill="white"/>
</clipPath>
</defs>
</svg>
