<svg width="24" height="24" viewBox="0 0 24 24" fill="none" xmlns="http://www.w3.org/2000/svg">
<g clip-path="url(#clip0_936_315)">
<path fill-rule="evenodd" clip-rule="evenodd" d="M9.66583 0.539325C10.0249 0.179774 10.4588 0 10.9676 0C11.4763 0 11.9102 0.179774 12.2693 0.539325L23.4913 11.7753C23.6908 11.975 23.8254 12.1848 23.8952 12.4045C23.9651 12.6242 24 12.8539 24 13.0936V22.2022C24 22.7216 23.8304 23.1511 23.4913 23.4906C23.1521 23.8302 22.7232 24 22.2045 24H13.1072C12.8678 24 12.6284 23.965 12.389 23.8951C12.1496 23.8252 11.9302 23.6904 11.7307 23.4906L0.568575 12.3146C0.189523 11.9351 0 11.4906 0 10.9813C0 10.4719 0.189523 10.0275 0.568575 9.64794L9.66583 0.539325ZM10.8928 1.76779L1.79551 10.8764L13.1072 22.2022H22.2045V13.0936L10.8928 1.76779ZM19.0623 17.5281C18.6434 17.5281 18.2793 17.6829 17.9701 17.9925C17.6608 18.3021 17.5062 18.6667 17.5062 19.0861C17.5062 19.5056 17.6608 19.8702 17.9701 20.1798C18.2793 20.4894 18.6434 20.6442 19.0623 20.6442C19.4813 20.6442 19.8454 20.4894 20.1546 20.1798C20.4638 19.8702 20.6184 19.5056 20.6184 19.0861C20.6184 18.6667 20.4638 18.3021 20.1546 17.9925C19.8454 17.6829 19.4813 17.5281 19.0623 17.5281ZM9.50377 6.31552C9.99223 5.82767 10.7837 5.82816 11.2715 6.31662L17.2641 12.3166C17.7519 12.8051 17.7514 13.5965 17.2629 14.0844C16.7745 14.5722 15.983 14.5717 15.4952 14.0833L9.50267 8.08328C9.01482 7.59482 9.01531 6.80337 9.50377 6.31552ZM8.07533 9.51669C7.58748 9.02823 6.79603 9.02774 6.30757 9.51559C5.81911 10.0034 5.81861 10.7949 6.30646 11.2834L12.299 17.2834C12.7868 17.7718 13.5783 17.7723 14.0667 17.2845C14.5552 16.7966 14.5557 16.0052 14.0678 15.5167L8.07533 9.51669Z" fill="white"/>
</g>
<defs>
<clipPath id="clip0_936_315">
<rect width="24" height="24" fill="white"/>
</clipPath>
</defs>
</svg>
