<svg width="24" height="24" viewBox="0 0 24 24" fill="none" xmlns="http://www.w3.org/2000/svg">
<path d="M1 2L1 1C0.734784 1 0.48043 1.10536 0.292893 1.29289C0.105357 1.48043 0 1.73478 0 2L1 2ZM23 2H24C24 1.73478 23.8946 1.48043 23.7071 1.29289C23.5196 1.10536 23.2652 1 23 1L23 2ZM22 5.49486C22 6.04715 22.4477 6.49486 23 6.49486C23.5523 6.49486 24 6.04715 24 5.49486H22ZM0 5.49486C0 6.04715 0.447715 6.49486 1 6.49486C1.55228 6.49486 2 6.04715 2 5.49486H0ZM8.63219 20.7083C8.07991 20.7083 7.63219 21.156 7.63219 21.7083C7.63219 22.2606 8.07991 22.7083 8.63219 22.7083V20.7083ZM15.0323 22.7083C15.5846 22.7083 16.0323 22.2606 16.0323 21.7083C16.0323 21.156 15.5846 20.7083 15.0323 20.7083V22.7083ZM22 2V5.49486H24V2H22ZM0 2V5.49486H2V2H0ZM1 3L11.8323 3L11.8323 1L1 1L1 3ZM11.8323 3L23 3L23 1L11.8323 1L11.8323 3ZM10.8323 2V21.7083H12.8323V2H10.8323ZM11.8323 20.7083H8.63219V22.7083H11.8323V20.7083ZM11.8323 22.7083H15.0323V20.7083H11.8323V22.7083Z" fill="white"/>
</svg>
