<svg width="24" height="24" viewBox="0 0 24 24" fill="none" xmlns="http://www.w3.org/2000/svg">
<g clip-path="url(#clip0_936_321)">
<path d="M12 18.1529C11.675 18.1529 11.4062 18.0446 11.1937 17.828C10.9812 17.6115 10.875 17.3376 10.875 17.0064V3.97452L7.1625 7.75796C6.9375 7.98726 6.675 8.09554 6.375 8.0828C6.075 8.07006 5.8125 7.94905 5.5875 7.71975C5.3625 7.49045 5.25 7.21656 5.25 6.89809C5.25 6.57962 5.3625 6.30573 5.5875 6.07643L11.2125 0.343949C11.3375 0.21656 11.4625 0.127388 11.5875 0.0764327C11.7125 0.0254773 11.85 0 12 0C12.15 0 12.2875 0.0254773 12.4125 0.0764327C12.5375 0.127388 12.6625 0.21656 12.7875 0.343949L18.45 6.11465C18.675 6.34395 18.7875 6.61146 18.7875 6.9172C18.7875 7.22293 18.675 7.49045 18.45 7.71975C18.225 7.94905 17.9562 8.06369 17.6437 8.06369C17.3312 8.06369 17.0625 7.94905 16.8375 7.71975L13.125 3.97452V17.0064C13.125 17.3376 13.0188 17.6115 12.8063 17.828C12.5938 18.0446 12.325 18.1529 12 18.1529V18.1529ZM2.25 24C1.65 24 1.125 23.7707 0.675 23.3121C0.225 22.8535 0 22.3185 0 21.707V17.3885C0 17.0573 0.10625 16.7834 0.31875 16.5669C0.53125 16.3503 0.8 16.242 1.125 16.242C1.45 16.242 1.71875 16.3503 1.93125 16.5669C2.14375 16.7834 2.25 17.0573 2.25 17.3885V21.707H21.75V17.3885C21.75 17.0573 21.8562 16.7834 22.0687 16.5669C22.2812 16.3503 22.55 16.242 22.875 16.242C23.2 16.242 23.4688 16.3503 23.6813 16.5669C23.8938 16.7834 24 17.0573 24 17.3885V21.707C24 22.3185 23.775 22.8535 23.325 23.3121C22.875 23.7707 22.35 24 21.75 24H2.25Z" fill="white"/>
</g>
<defs>
<clipPath id="clip0_936_321">
<rect width="24" height="24" fill="white"/>
</clipPath>
</defs>
</svg>
